<?xml version="1.0" encoding="UTF-8" standalone="no" ?>
<!DOCTYPE svg PUBLIC "-//W3C//DTD SVG 1.1//EN" "http://www.w3.org/Graphics/SVG/1.1/DTD/svg11.dtd">
<svg xmlns="http://www.w3.org/2000/svg" xmlns:xlink="http://www.w3.org/1999/xlink" version="1.1" width="1080" height="1080" viewBox="0 0 1080 1080" xml:space="preserve">
<desc>Created with Fabric.js 5.2.4</desc>
<defs>
</defs>
<g transform="matrix(1 0 0 1 540 540)" id="327252d7-33a8-4c4d-8508-5da241d5bc16"  >
<rect style="stroke: none; stroke-width: 1; stroke-dasharray: none; stroke-linecap: butt; stroke-dashoffset: 0; stroke-linejoin: miter; stroke-miterlimit: 4; fill: rgb(255,255,255); fill-rule: nonzero; opacity: 1; visibility: hidden;" vector-effect="non-scaling-stroke"  x="-540" y="-540" rx="0" ry="0" width="1080" height="1080" />
</g>
<g transform="matrix(1 0 0 1 540 540)" id="a533c647-73af-4b2c-97ab-ac8fb317a9d7"  >
</g>
<g transform="matrix(1 0 0 1 540 540)"  >
<g style="" vector-effect="non-scaling-stroke"   >
		<g transform="matrix(1 0 0 1 -3.74 0)"  >
<path style="stroke: none; stroke-width: 1; stroke-dasharray: none; stroke-linecap: butt; stroke-dashoffset: 0; stroke-linejoin: miter; stroke-miterlimit: 4; fill: rgb(0,0,0); fill-rule: nonzero; opacity: 1;" vector-effect="non-scaling-stroke"  transform=" translate(-519.39, -500.83)" d="M 275.681468 968.553688 L 457.821945 968.553688 C 472.95809751991226 968.5072653721775 485.2168433721776 956.2485195199122 485.26326600000004 941.112367 C 485.22197482084067 925.9740802501709 472.96023174982906 913.7123371791592 457.821945 913.6710459999999 L 275.681468 913.6710459999999 C 216.684037 913.6710459999999 168.659376 865.6463849999999 168.659376 806.63956 L 168.659376 195.010936 C 168.659376 136.01350499999998 216.674642 87.98884399999999 275.681468 87.98884399999999 L 763.105468 87.98884399999999 C 822.102899 87.98884399999999 870.12756 136.00410999999997 870.12756 195.010936 L 870.12756 419.323303 C 870.1739826278225 434.45945551991224 882.4327284800878 446.7182013721776 897.568881 446.764624 C 912.7071677498291 446.72333282084065 924.9689108208407 434.46158974982905 925.010202 419.323303 L 925.010202 195.010936 C 925.010202 105.82899099999999 852.296808 33.106201999999996 763.114862 33.106201999999996 L 275.681468 33.106201999999996 C 186.499523 33.106201999999996 113.776734 105.828991 113.776734 195.010936 L 113.776734 806.63956 C 114.46253200000001 895.821505 186.499523 968.553688 275.681468 968.553688 z" stroke-linecap="round" />
</g>
		<g transform="matrix(1 0 0 1 74.4 93.38)"  >
<path style="stroke: none; stroke-width: 1; stroke-dasharray: none; stroke-linecap: butt; stroke-dashoffset: 0; stroke-linejoin: miter; stroke-miterlimit: 4; fill: rgb(0,0,0); fill-rule: nonzero; opacity: 1;" vector-effect="non-scaling-stroke"  transform=" translate(-597.53, -594.21)" d="M 290.017468 294.141651 L 688.250128 294.141651 C 703.3862809104357 294.09522892088097 715.6450273692985 281.8364829087441 715.69145 266.70033 C 715.6501588182789 251.56204286115198 703.3884151403528 239.3002996300608 688.250128 239.25900900000002 L 290.017468 239.25900900000002 C 274.88131548008784 239.3054316278225 262.6225696278225 251.56417748008784 262.576147 266.70033 C 262.62256962782243 281.83648251991224 274.8813154800878 294.0952283721776 290.017468 294.141651 z M 546.928734 483.985615 C 546.8822851988403 468.8458086525669 534.6178393602397 456.58556031718086 519.478018 456.544294 L 290.017468 456.544294 C 274.929908 456.544294 262.576147 468.88866099999996 262.576147 483.985615 C 262.576147 499.08256900000003 274.92051399999997 511.426936 290.017468 511.426936 L 518.801615 511.426936 C 534.574973 511.417542 546.928734 499.073175 546.928734 483.985615 z M 290.017468 673.838972 C 274.929908 673.838972 262.576147 686.183339 262.576147 701.280294 C 262.576147 716.377249 274.92051399999997 728.721615 290.017468 728.721615 L 360.335266 728.721615 C 375.422826 728.721615 387.776587 716.377248 387.776587 701.280294 C 387.776587 686.18334 375.43222000000003 673.838973 360.335266 673.838972 L 290.017468 673.838972 z M 715.353248 514.893505 C 596.005578 514.893505 498.22767 612.098349 498.22767 732.019083 C 498.22767 851.9398170000001 595.441909 949.154055 715.353248 949.154055 C 834.691523 949.154055 932.48822 851.9304219999999 932.48822 732.0190829999999 C 932.48822 612.680808 835.2645869999999 514.8935049999999 715.3532479999999 514.8935049999999 z M 715.353248 898.536514 C 623.597211 898.536514 549.399487 824.3481840000001 549.399486 732.582752 C 549.399486 640.826715 624.16088 566.628991 715.353248 566.628991 C 806.545616 566.628991 881.307009 640.826716 881.307009 732.582752 C 881.307009 824.338788 807.09989 898.536513 715.353248 898.536514 z" stroke-linecap="round" />
</g>
		<g transform="matrix(1 0 0 1 192.18 231.19)"  >
<path style="stroke: none; stroke-width: 1; stroke-dasharray: none; stroke-linecap: butt; stroke-dashoffset: 0; stroke-linejoin: miter; stroke-miterlimit: 4; fill: rgb(0,0,0); fill-rule: nonzero; opacity: 1;" vector-effect="non-scaling-stroke"  transform=" translate(-715.31, -732.02)" d="M 704.371083 832.108037 C 705.056881 832.108037 705.056881 832.108037 704.371083 832.108037 L 705.742679 833.4796329999999 L 706.4284769999999 834.156037 C 706.4284769999999 834.156037 707.104881 834.156037 707.104881 834.841835 C 707.104881 834.841835 707.790679 834.841835 707.790679 835.5276329999999 C 707.790679 835.5276329999999 708.4764769999999 835.5276329999999 708.4764769999999 836.204037 C 708.4764769999999 836.204037 709.152881 836.204037 709.152881 836.889835 C 709.152881 836.889835 709.848074 836.889835 709.848073 837.5756329999999 L 722.19244 837.5756329999999 C 722.19244 837.5756329999999 722.8688440000001 837.5756329999999 722.8688440000001 836.889835 C 722.8688440000001 836.889835 723.5546420000001 836.889835 723.5546420000001 836.204037 C 723.5546420000001 836.204037 724.24044 836.204037 724.24044 835.5276329999999 C 724.24044 835.5276329999999 724.9168440000001 835.5276329999999 724.9168440000001 834.841835 C 724.9168440000001 834.841835 725.6026420000001 834.841835 725.6026420000001 834.156037 L 726.28844 833.4796329999999 L 726.974239 832.7844399999999 L 727.660037 832.1080369999999 L 821.642569 738.8019079999999 C 828.500551 731.9439259999999 828.500551 720.2759629999999 821.642569 713.4179819999999 C 814.793982 706.569395 803.116624 706.569395 796.258642 713.4179819999999 L 733.146422 776.539596 L 733.146422 644.302679 C 733.146422 634.701505 724.90745 626.462532 715.3156700000001 626.462532 C 705.714496 626.462532 697.4755230000001 634.701504 697.4755230000001 644.302679 L 697.4755230000001 776.5395960000001 L 634.363303 713.417982 C 627.505321 706.5693950000001 615.837358 706.5693950000001 608.979376 713.417982 C 602.121394 720.275964 602.121394 731.943927 608.979376 738.801908 L 704.371083 832.108037 z" stroke-linecap="round" />
</g>
</g>
</g>
<g transform="matrix(5.21 0 0 3.85 506.44 315.49)" id="2547b8ab-adab-4577-b80f-25058bed03d7"  >
<path style="stroke: rgb(0,0,0); stroke-width: 0; stroke-dasharray: none; stroke-linecap: butt; stroke-dashoffset: 0; stroke-linejoin: miter; stroke-miterlimit: 4; fill: rgb(66,133,244); fill-rule: nonzero; opacity: 1;" vector-effect="non-scaling-stroke"  transform=" translate(-50, -50)" d="M 94.75 50 C 94.75 56.213 89.514 61.25 83.054 61.25 L 16.946 61.25 C 10.486 61.25 5.25 56.213 5.25 50 L 5.25 50 C 5.25 43.787 10.486 38.75 16.945999999999998 38.75 L 83.053 38.75 C 89.514 38.75 94.75 43.787 94.75 50 L 94.75 50 z" stroke-linecap="round" />
</g>
<g transform="matrix(2.25 0 0 3.16 357.31 748.88)"  >
<path style="stroke: rgb(0,0,0); stroke-width: 0; stroke-dasharray: none; stroke-linecap: butt; stroke-dashoffset: 0; stroke-linejoin: miter; stroke-miterlimit: 4; fill: rgb(219,68,55); fill-rule: nonzero; opacity: 1;" vector-effect="non-scaling-stroke"  transform=" translate(-50, -50)" d="M 94.75 50 C 94.75 56.213 89.514 61.25 83.054 61.25 L 16.946 61.25 C 10.486 61.25 5.25 56.213 5.25 50 L 5.25 50 C 5.25 43.787 10.486 38.75 16.945999999999998 38.75 L 83.053 38.75 C 89.514 38.75 94.75 43.787 94.75 50 L 94.75 50 z" stroke-linecap="round" />
</g>
<g transform="matrix(3.22 0 0 3.16 422.77 522.16)"  >
<path style="stroke: rgb(0,0,0); stroke-width: 0; stroke-dasharray: none; stroke-linecap: butt; stroke-dashoffset: 0; stroke-linejoin: miter; stroke-miterlimit: 4; fill: rgb(244,180,0); fill-rule: nonzero; opacity: 1;" vector-effect="non-scaling-stroke"  transform=" translate(-50, -50)" d="M 94.75 50 C 94.75 56.213 89.514 61.25 83.054 61.25 L 16.946 61.25 C 10.486 61.25 5.25 56.213 5.25 50 L 5.25 50 C 5.25 43.787 10.486 38.75 16.945999999999998 38.75 L 83.053 38.75 C 89.514 38.75 94.75 43.787 94.75 50 L 94.75 50 z" stroke-linecap="round" />
</g>
<g transform="matrix(0 3.29 -3.29 0 733.76 754.38)" id="84acd19a-fff4-47dd-a114-acd3a2b5f909"  >
<path style="stroke: rgb(0,0,0); stroke-width: 0; stroke-dasharray: none; stroke-linecap: butt; stroke-dashoffset: 0; stroke-linejoin: miter; stroke-miterlimit: 4; fill: rgb(15,157,88); fill-rule: nonzero; opacity: 1;" vector-effect="non-scaling-stroke"  transform=" translate(-49.5, -50)" d="M 46.971 82.136 C 49.800999999999995 84.91799999999999 54.336 84.91799999999999 57.165 82.136 L 84.187 55.114999999999995 C 86.966 52.285999999999994 86.966 47.699999999999996 84.187 44.92099999999999 L 57.165 17.899 C 54.336 15.07 49.8 15.07 46.971 17.899 C 43.312999999999995 21.752000000000002 51.312999999999995 32.532 55.117 42.189 L 17.51 42.189 C 14.875000000000002 42.189 12.73 44.336 12.73 46.921 L 12.73 54.188 C 12.73 56.823 14.876000000000001 58.969 17.51 58.969 L 54.628 58.969 C 50.775 68.091 43.653 77.844 46.971 82.136 z" stroke-linecap="round" />
</g>
<g transform="matrix(NaN NaN NaN NaN 0 0)"  >
<g style=""   >
</g>
</g>
<g transform="matrix(NaN NaN NaN NaN 0 0)"  >
<g style=""   >
</g>
</g>
<g transform="matrix(NaN NaN NaN NaN 0 0)"  >
<g style=""   >
</g>
</g>
<g transform="matrix(NaN NaN NaN NaN 0 0)"  >
<g style=""   >
</g>
</g>
<g transform="matrix(NaN NaN NaN NaN 0 0)"  >
<g style=""   >
</g>
</g>
<g transform="matrix(NaN NaN NaN NaN 0 0)"  >
<g style=""   >
</g>
</g>
<g transform="matrix(NaN NaN NaN NaN 0 0)"  >
<g style=""   >
</g>
</g>
<g transform="matrix(NaN NaN NaN NaN 0 0)"  >
<g style=""   >
</g>
</g>
<g transform="matrix(NaN NaN NaN NaN 0 0)"  >
<g style=""   >
</g>
</g>
<g transform="matrix(NaN NaN NaN NaN 0 0)"  >
<g style=""   >
</g>
</g>
</svg>